<?xml version="1.0" encoding="utf-8"?><svg xmlns="http://www.w3.org/2000/svg" xmlns:xlink="http://www.w3.org/1999/xlink" width="1366" height="695" preserveAspectRatio="xMidYMid" viewBox="0 0 1366 695" style="z-index:1;margin-right:-2px;display:block;background-repeat-y:initial;background-repeat-x:initial;background-color:rgb(255, 255, 255);animation-play-state:paused" ><g transform="translate(683,347.5) scale(1,1) translate(-683,-347.5)" style="transform:matrix(1, 0, 0, 1, 0, 0);animation-play-state:paused" ><defs style="animation-play-state:paused" ><path id="path-uj0am4vbjf-1" d="M-35 -35L35 -35L35 35L-35 35Z" fill="none" stroke="inherit" stroke-width="4.333333333333334" transform="scale(0.3)" style="transform:matrix(0.3, 0, 0, 0.3, 0, 0);animation-play-state:paused" ></path>

  
<path id="path-uj0am4vbjf-2" d="M0 -37A37 37 0 0 1 0 37A37 37 0 0 1 0 -37" fill="none" stroke="inherit" stroke-width="4.333333333333334" transform="scale(0.3)" style="transform:matrix(0.3, 0, 0, 0.3, 0, 0);animation-play-state:paused" ></path>

  
<path id="path-uj0am4vbjf-3" d="M0 -34.641L40 34.641L-40 34.641Z" fill="none" stroke="inherit" stroke-width="4.333333333333334" transform="scale(0.3)" style="transform:matrix(0.3, 0, 0, 0.3, 0, 0);animation-play-state:paused" ></path></defs>
<path id="path0" d="M 93.10936029490469 650.908474544872
c 0 39.40145325179076 -9.640781114799866 11.317438699982453 -20.958219814782318 11.317438699982453
S 51.19292066534006 690.3099277966627 51.19292066534006 650.908474544872
s 9.640781114799866 -11.317438699982453 20.958219814782318 -11.317438699982453
S 93.10936029490469 611.5070212930813 93.10936029490469 650.908474544872
z" fill="none" stroke="none" style="animation-play-state:paused" ></path>


<use xlink:href="#path-uj0am4vbjf-1" x="0" y="0" stroke="#e5e498" transform="translate(92.587158203125 663.5464477539062)" style="animation-play-state:paused" ></use>
<path id="path1" d="M 181.52385499612245 65.95948218806541
c 0 34.42208736428274 -8.4224256316862 9.887195306762065 -18.309620938448266 9.887195306762065
S 144.90461311922593 100.38156955234814 144.90461311922593 65.95948218806541
s 8.4224256316862 -9.887195306762065 18.309620938448266 -9.887195306762065
S 181.52385499612245 31.53739482378267 181.52385499612245 65.95948218806541
z" fill="none" stroke="none" style="animation-play-state:paused" ></path>


<use xlink:href="#path-uj0am4vbjf-1" x="0" y="0" stroke="#a1a1a1" transform="translate(161.376708984375 76.11454010009766)" style="animation-play-state:paused" ></use>
<path id="path2" d="M 243.69784991222284 493.38601373276003
c 0 38.027780755311746 -9.304669759278404 10.92287319567465 -20.227542954953055 10.92287319567465
S 203.2427640023167 531.4137944880717 203.2427640023167 493.38601373276003
s 9.304669759278404 -10.92287319567465 20.227542954953055 -10.92287319567465
S 243.69784991222284 455.35823297744827 243.69784991222284 493.38601373276003
z" fill="none" stroke="none" style="animation-play-state:paused" ></path>


<use xlink:href="#path-uj0am4vbjf-3" x="0" y="0" stroke="#e5e498" transform="translate(238.3413543701172 513.4226684570312)" style="animation-play-state:paused" ></use>
<path id="path3" d="M 278.4525156660256 665.4561924770076
c 0 29.510759701353614 -7.220717799267373 8.476494807835612 -15.697212607102987 8.476494807835612
S 247.05809045181962 694.9669521783612 247.05809045181962 665.4561924770076
s 7.220717799267373 -8.476494807835612 15.697212607102987 -8.476494807835612
S 278.4525156660256 635.9454327756539 278.4525156660256 665.4561924770076
z" fill="none" stroke="none" style="animation-play-state:paused" ></path>


<use xlink:href="#path-uj0am4vbjf-1" x="0" y="0" stroke="#a1a1a1" transform="translate(268.1005859375 676.2222900390625)" style="animation-play-state:paused" ></use>
<path id="path4" d="M 367.6879392523425 553.2650168769272
c 0 63.13315590895559 -15.447474318148705 18.133991590870224 -33.58146590901893 18.133991590870224
S 300.5250074343046 616.3981727858828 300.5250074343046 553.2650168769272
s 15.447474318148705 -18.133991590870224 33.58146590901893 -18.133991590870224
S 367.6879392523425 490.13186096797165 367.6879392523425 553.2650168769272
z" fill="none" stroke="none" style="animation-play-state:paused" ></path>


<use xlink:href="#path-uj0am4vbjf-3" x="0" y="0" stroke="#d2d046" transform="translate(365.1790771484375 582.1998901367188)" style="animation-play-state:paused" ></use>
<path id="path5" d="M 448.04819041931586 390.76147415248823
c 0 31.746542551137217 -7.767771049746339 9.118687754050052 -16.88645880379639 9.118687754050052
S 414.275272811723 422.50801670362546 414.275272811723 390.76147415248823
s 7.767771049746339 -9.118687754050052 16.88645880379639 -9.118687754050052
S 448.04819041931586 359.014931601351 448.04819041931586 390.76147415248823
z" fill="none" stroke="none" style="animation-play-state:paused" ></path>


<use xlink:href="#path-uj0am4vbjf-2" x="0" y="0" stroke="#e5e498" transform="translate(438.5809631347656 403.6974792480469)" style="animation-play-state:paused" ></use>
<path id="path6" d="M 525.0649997812653 83.85281162386363
c 0 55.43154515830974 -13.563037645118339 15.921826800791097 -29.484864445909437 15.921826800791097
S 466.0952708894465 139.28435678217338 466.0952708894465 83.85281162386363
s 13.563037645118339 -15.921826800791097 29.484864445909437 -15.921826800791097
S 525.0649997812653 28.42126646555389 525.0649997812653 83.85281162386363
z" fill="none" stroke="none" style="animation-play-state:paused" ></path>


<use xlink:href="#path-uj0am4vbjf-1" x="0" y="0" stroke="#d2d046" transform="translate(487.5723571777344 102.63541412353516)" style="animation-play-state:paused" ></use>
<path id="path7" d="M 621.1568548491812 588.0201743299485
c 0 26.81803873146608 -6.56186054067787 7.703053678187065 -14.264914218864934 7.703053678187065
S 592.6270264114512 614.8382130614146 592.6270264114512 588.0201743299485
s 6.56186054067787 -7.703053678187065 14.264914218864934 -7.703053678187065
S 621.1568548491812 561.2021355984824 621.1568548491812 588.0201743299485
z" fill="none" stroke="none" style="animation-play-state:paused" ></path>


<use xlink:href="#path-uj0am4vbjf-1" x="0" y="0" stroke="#a1a1a1" transform="translate(615.2975463867188 600.7817993164062)" style="animation-play-state:paused" ></use>
<path id="path8" d="M 650.0055681958916 456.8184378753399
c 0 47.103062300154285 -11.525217371314344 13.529603001108146 -25.05482037242249 13.529603001108146
S 599.8959274510466 503.9215001754942 599.8959274510466 456.8184378753399
s 11.525217371314344 -13.529603001108146 25.05482037242249 -13.529603001108146
S 650.0055681958916 409.7153755751856 650.0055681958916 456.8184378753399
z" fill="none" stroke="none" style="animation-play-state:paused" ></path>


<use xlink:href="#path-uj0am4vbjf-1" x="0" y="0" stroke="#d2d046" transform="translate(629.1779174804688 471.34539794921875)" style="animation-play-state:paused" ></use>
<path id="path9" d="M 760.4400483957637 434.46278020034856
c 0 22.69144678985724 -5.5521625124118765 6.517755992831335 -12.069918505243212 6.517755992831335
S 736.3002113852773 457.1542269902058 736.3002113852773 434.46278020034856
s 5.5521625124118765 -6.517755992831335 12.069918505243212 -6.517755992831335
S 760.4400483957637 411.7713334104913 760.4400483957637 434.46278020034856
z" fill="none" stroke="none" style="animation-play-state:paused" ></path>


<use xlink:href="#path-uj0am4vbjf-1" x="0" y="0" stroke="#d2d046" transform="translate(760.4398193359375 434.5861511230469)" style="animation-play-state:paused" ></use>
<path id="path10" d="M 806.6548803234347 391.19329194474
c 0 63.93699009118527 -15.644157149970864 18.364880132574495 -34.00903728254536 18.364880132574495
S 738.6368057583439 455.1302820359253 738.6368057583439 391.19329194474
s 15.644157149970864 -18.364880132574495 34.00903728254536 -18.364880132574495
S 806.6548803234347 327.2563018535547 806.6548803234347 391.19329194474
z" fill="none" stroke="none" style="animation-play-state:paused" ></path>


<use xlink:href="#path-uj0am4vbjf-3" x="0" y="0" stroke="#a1a1a1" transform="translate(806.5833740234375 398.224609375)" style="animation-play-state:paused" ></use>
<path id="path11" d="M 876.7376787114774 88.70031499101789
c 0 23.490436789288925 -5.74766006546431 6.74725312032767 -12.49491318579198 6.74725312032767
S 851.7478523398934 112.19075178030681 851.7478523398934 88.70031499101789
s 5.74766006546431 -6.74725312032767 12.49491318579198 -6.74725312032767
S 876.7376787114774 65.20987820172897 876.7376787114774 88.70031499101789
z" fill="none" stroke="none" style="animation-play-state:paused" ></path>


<use xlink:href="#path-uj0am4vbjf-3" x="0" y="0" stroke="#d2d046" transform="translate(861.5416870117188 96.24186706542969)" style="animation-play-state:paused" ></use>
<path id="path12" d="M 963.4571980813936 70.79306056211436
c 0 31.141012979819088 -7.619609558891903 8.944759047394845 -16.56436860628675 8.944759047394845
S 930.3284608688201 101.93407354193346 930.3284608688201 70.79306056211436
s 7.619609558891903 -8.944759047394845 16.56436860628675 -8.944759047394845
S 963.4571980813936 39.652047582295275 963.4571980813936 70.79306056211436
z" fill="none" stroke="none" style="animation-play-state:paused" ></path>


<use xlink:href="#path-uj0am4vbjf-3" x="0" y="0" stroke="#a1a1a1" transform="translate(963.4400024414062 73.22250366210938)" style="animation-play-state:paused" ></use>
<path id="path13" d="M 1049.2489358015875 151.08628912285906
c 0 59.7198300180227 -14.612298834197041 17.153568196666093 -31.765867030863134 17.153568196666093
S 985.7172017398614 210.80611914088175 985.7172017398614 151.08628912285906
s 14.612298834197041 -17.153568196666093 31.765867030863134 -17.153568196666093
S 1049.2489358015875 91.36645910483637 1049.2489358015875 151.08628912285906
z" fill="none" stroke="none" style="animation-play-state:paused" ></path>


<use xlink:href="#path-uj0am4vbjf-3" x="0" y="0" stroke="#e5e498" transform="translate(1031.957763671875 175.86404418945312)" style="animation-play-state:paused" ></use>
<path id="path14" d="M 1072.9399110177685 507.91023001842257
c 0 21.91808737909905 -5.362936273609342 6.295620842932706 -11.658557116542047 6.295620842932706
S 1049.6227967846846 529.8283173975216 1049.6227967846846 507.91023001842257
s 5.362936273609342 -6.295620842932706 11.658557116542047 -6.295620842932706
S 1072.9399110177685 485.9921426393235 1072.9399110177685 507.91023001842257
z" fill="none" stroke="none" style="animation-play-state:paused" ></path>


<use xlink:href="#path-uj0am4vbjf-2" x="0" y="0" stroke="#d2d046" transform="translate(1059.2294921875 514.708740234375)" style="animation-play-state:paused" ></use>
<path id="path15" d="M 1191.629807734104 18.671712852157775
c 0 27.8085864678617 -6.804228603838501 7.987572708853893 -14.791801312692394 7.987572708853893
S 1162.0462051087193 46.480299320019476 1162.0462051087193 18.671712852157775
s 6.804228603838501 -7.987572708853893 14.791801312692394 -7.987572708853893
S 1191.629807734104 -9.136873615703927 1191.629807734104 18.671712852157775
z" fill="none" stroke="none" style="animation-play-state:paused" ></path>


<use xlink:href="#path-uj0am4vbjf-3" x="0" y="0" stroke="#e5e498" transform="translate(1185.6446533203125 31.978574752807617)" style="animation-play-state:paused" ></use>
<path id="path16" d="M 1250.631223347295 100.73105157686953
c 0 41.690230549876055 -10.200801091990948 11.974853455815463 -22.17565454780641 11.974853455815463
S 1206.279914251682 142.42128212674558 1206.279914251682 100.73105157686953
s 10.200801091990948 -11.974853455815463 22.17565454780641 -11.974853455815463
S 1250.631223347295 59.04082102699348 1250.631223347295 100.73105157686953
z" fill="none" stroke="none" style="animation-play-state:paused" ></path>


<use xlink:href="#path-uj0am4vbjf-2" x="0" y="0" stroke="#e5e498" transform="translate(1220.6517333984375 116.13381958007812)" style="animation-play-state:paused" ></use>
<path id="path17" d="M 1361.3036312848733 556.9925146265606
c 0 39.86335208095723 -9.753798913425705 11.450111767934523 -21.203910681360227 11.450111767934523
S 1318.895809922153 596.8558667075179 1318.895809922153 556.9925146265606
s 9.753798913425705 -11.450111767934523 21.203910681360227 -11.450111767934523
S 1361.3036312848733 517.1291625456033 1361.3036312848733 556.9925146265606
z" fill="none" stroke="none" style="animation-play-state:paused" ></path>


<use xlink:href="#path-uj0am4vbjf-1" x="0" y="0" stroke="#a1a1a1" transform="translate(1360.12158203125 573.8274536132812)" style="animation-play-state:paused" ></use></g></svg>